<svg version="1.1" baseProfile="full" width="683" height="252.75" viewbox="0 0 683 252.75" xmlns="http://www.w3.org/2000/svg" xmlns:xlink="http://www.w3.org/1999/xlink" xmlns:ev="http://www.w3.org/2001/xml-events" style="font-weight:bold; font-size:12pt; font-family:'Calibri', Helvetica, sans-serif;;stroke-width:3;stroke-linejoin:round;stroke-linecap:round">
  <title >nomnoml</title>
  <desc >#direction: right
#edges: rounded
#zoom: 2
#fillArrows: true
#leading: 1.75
#spacing: 90
#arrowSize: 0.5
[Author|
id:string
username: string
firstName: string
lastName: string
biography: string
]

[BlogPost|
slug: string
title: string
content: string
created: Date
]

[BlogComment|
id: string
text: string
created: Date
]

[BlogPost] author+-&gt; [Author]
[BlogComment] blog+-&gt; [BlogPost]
[BlogComment] auhtor+-&gt; [Author]
</desc>
  <text x="410.5" y="74" style="fill: #33322E;font-weight:normal;">author</text>
  <path d="M402.5 82 L447.5 82 L492.5 108.6 L492.5 108.6 " style="stroke:#33322E;fill:none;stroke-dasharray:none;"></path>
  <path d="M476.5 106.1 L479.6 101 L482.6 95.8 L492.5 108.6 Z" style="stroke:#33322E;fill:#33322E;stroke-dasharray:none;"></path>
  <path d="M413 76 L423.5 82 L413 88 L402.5 82 Z" style="stroke:#33322E;fill:#33322E;stroke-dasharray:none;"></path>
  <text x="107.5" y="105" style="fill: #33322E;font-weight:normal;">blog</text>
  <path d="M153.5 113 L198.5 82 L243.5 82 L243.5 82 " style="stroke:#33322E;fill:none;stroke-dasharray:none;"></path>
  <path d="M228.5 88 L228.5 82 L228.5 76 L243.5 82 Z" style="stroke:#33322E;fill:#33322E;stroke-dasharray:none;"></path>
  <path d="M158.7 102.1 L170.8 101.1 L165.6 112 L153.5 113 Z" style="stroke:#33322E;fill:#33322E;stroke-dasharray:none;"></path>
  <text x="88.5" y="229.5" style="fill: #33322E;font-weight:normal;">auhtor</text>
  <path d="M153.5 209.5 L198.5 240.5 L323 240.5 L323 240.5 L447.5 240.5 L447.5 240.5 L492.5 213.9 L492.5 213.9 " style="stroke:#33322E;fill:none;stroke-dasharray:none;"></path>
  <path d="M482.6 226.7 L479.6 221.5 L476.5 216.4 L492.5 213.9 Z" style="stroke:#33322E;fill:#33322E;stroke-dasharray:none;"></path>
  <path d="M165.6 210.5 L170.8 221.4 L158.7 220.4 L153.5 209.5 Z" style="stroke:#33322E;fill:#33322E;stroke-dasharray:none;"></path>
  <rect x="492.5" y="82.5" height="158" width="178" style="stroke:#33322E;fill:#eee8d5;stroke-dasharray:none;"></rect>
  <text x="581.5" y="107" style="fill: #33322E;text-anchor: middle;">Author</text>
  <path d="M492.5 119.5 L670.5 119.5" style="stroke:#33322E;fill:none;stroke-dasharray:none;"></path>
  <text x="500.5" y="144" style="fill: #33322E;font-weight:normal;">id:string</text>
  <text x="500.5" y="165" style="fill: #33322E;font-weight:normal;">username: string</text>
  <text x="500.5" y="186" style="fill: #33322E;font-weight:normal;">firstName: string</text>
  <text x="500.5" y="207" style="fill: #33322E;font-weight:normal;">lastName: string</text>
  <text x="500.5" y="228" style="fill: #33322E;font-weight:normal;">biography: string</text>
  <rect x="243.5" y="13.5" height="137" width="159" style="stroke:#33322E;fill:#eee8d5;stroke-dasharray:none;"></rect>
  <text x="323" y="38" style="fill: #33322E;text-anchor: middle;">BlogPost</text>
  <path d="M243.5 50.5 L402.5 50.5" style="stroke:#33322E;fill:none;stroke-dasharray:none;"></path>
  <text x="251.5" y="75" style="fill: #33322E;font-weight:normal;">slug: string</text>
  <text x="251.5" y="96" style="fill: #33322E;font-weight:normal;">title: string</text>
  <text x="251.5" y="117" style="fill: #33322E;font-weight:normal;">content: string</text>
  <text x="251.5" y="138" style="fill: #33322E;font-weight:normal;">created: Date</text>
  <rect x="13.5" y="103.5" height="116" width="140" style="stroke:#33322E;fill:#eee8d5;stroke-dasharray:none;"></rect>
  <text x="83.5" y="128" style="fill: #33322E;text-anchor: middle;">BlogComment</text>
  <path d="M13.5 140.5 L153.5 140.5" style="stroke:#33322E;fill:none;stroke-dasharray:none;"></path>
  <text x="21.5" y="165" style="fill: #33322E;font-weight:normal;">id: string</text>
  <text x="21.5" y="186" style="fill: #33322E;font-weight:normal;">text: string</text>
  <text x="21.5" y="207" style="fill: #33322E;font-weight:normal;">created: Date</text>
</svg>